{"title":"BBC Proms 2011_21 Walton's Violin Concerto","uid":6578069,"size":6237238091,"categoryP":"video","categoryS":"music_videos","magnet":"?xt=urn:btih:58724756b28687b9a778efe68e50efdd19c71d76&amp;dn=BBC+Proms+2011_21+Walton%5C%27s+Violin+Concerto&amp;tr=udp%3A%2F%2Ftracker.openbittorrent.com%3A80&amp;tr=udp%3A%2F%2Fopen.demonii.com%3A1337&amp;tr=udp%3A%2F%2Ftracker.coppersurfer.tk%3A6969&amp;tr=udp%3A%2F%2Fexodus.desync.com%3A6969","seeders":0,"leechers":1,"uploader":"Hathor","files":4,"time":1312290416,"description":"This torrent contains both a DVD ISO and an MP4 Video of the concert so I suggest you select whichever you prefer. The MP4@720p approaches HD video quaility and includes additional interviews.\n\n\nBBC Proms 2011, Number 21\nBBC2 on 30 July\nThanks to GringoLoco &amp; the BBC\n\nR. Strauss:\nDon Juan (17 mins)\n\nWalton:\nViolin Concerto (32 mins)\nMidori: violin\n   \nProkofiev:\nAlexander Nevsky - cantata (40 mins)\n\nR. Strauss:\nSalome - Dance of the Seven Veils (12 mins)\n\nNadezhda Serdiuk: mezzo-soprano\nCBSO Chorus\nCity of Birmingham Symphony Orchestra\nAndris Nelsons: conductor\n\n*******************************************************\n\nFormat: DVD ISO PAL 16:9\nRuntime: 1:58\nCommentary in English\nFixed English subtitles for vocals\nInterval cut\n\nVideo\nID                               : 224 (0xE0)\nFormat                           : MPEG Video\nFormat version                   : Version 2\nFormat profile                   : Main@Main\nFormat settings, BVOP            : Yes\nFormat settings, Matrix          : Default\nBit rate mode                    : Variable\nBit rate                         : 3 402 Kbps\nNominal bit rate                 : 9 544 Kbps\nWidth                            : 720 pixels\nHeight                           : 576 pixels\nDisplay aspect ratio             : 16:9\nFrame rate                       : 25.000 fps\nStandard                         : PAL\nColor space                      : YUV\nChroma subsampling               : 4:2:0\nBit depth                        : 8 bits\nScan type                        : Interlaced\nScan order                       : Top Field First\nCompression mode                 : Lossy\nBits/(Pixel*Frame)               : 0.328\n\nAudio\nID                               : 192 (0xC0)\nFormat                           : MPEG Audio\nFormat version                   : Version 1\nFormat profile                   : Layer 2\nBit rate mode                    : Constant\nBit rate                         : 256 Kbps\nChannel(s)                       : 2 channels\nSampling rate                    : 48.0 KHz\nCompression mode                 : Lossy\n\n**************************************************\n\nFormat: MP4 720p\nRuntime: 2:17\n\nFormat profile                   : Base Media\nCodec ID                         : isom\nFile size                        : 2.66 GiB\nDuration                         : 2h 17mn\nOverall bit rate                 : 2 760 Kbps\nWriting application              : Lavf52.93.0\n\nVideo\nID                               : 1\nFormat                           : AVC\nFormat/Info                      : Advanced Video Codec\nFormat profile                   : &lt;a class=&quot;__cf_email__&quot; href=&quot;/cdn-cgi/l/email-protection&quot; data-cfemail=&quot;521a3b353a121e667c63&quot;&gt;[email&amp;#160;protected]&lt;/a&gt;&lt;script cf-hash='f9e31' type=&quot;text/javascript&quot;&gt;\n/* &lt;![CDATA[ */!function(){try{var t=&quot;currentScript&quot;in document?document.currentScript:function(){for(var t=document.getElementsByTagName(&quot;script&quot;),e=t.length;e--;)if(t[e].getAttribute(&quot;cf-hash&quot;))return t[e]}();if(t&amp;&amp;t.previousSibling){var e,r,n,i,c=t.previousSibling,a=c.getAttribute(&quot;data-cfemail&quot;);if(a){for(e=&quot;&quot;,r=parseInt(a.substr(0,2),16),n=2;a.length-n;n+=2)i=parseInt(a.substr(n,2),16)^r,e+=String.fromCharCode(i);e=document.createTextNode(e),c.parentNode.replaceChild(e,c)}}}catch(u){}}();/* ]]&gt; */&lt;/script&gt;\nFormat settings, CABAC           : Yes\nFormat settings, ReFrames        : 6 frames\nCodec ID                         : avc1\nCodec ID/Info                    : Advanced Video Coding\nDuration                         : 2h 17mn\nBit rate mode                    : Variable\nBit rate                         : 2 660 Kbps\nMaximum bit rate                 : 3 500 Kbps\nWidth                            : 1 280 pixels\nHeight                           : 720 pixels\nDisplay aspect ratio             : 16:9\nFrame rate mode                  : Constant\nFrame rate                       : 25.000 fps\nStandard                         : PAL\nColor space                      : YUV\nChroma subsampling               : 4:2:0\nBit depth                        : 8 bits\nScan type                        : Progressive\nBits/(Pixel*Frame)               : 0.115\nStream size                      : 2.56 GiB (96%)\n\nAudio\nID                               : 2\nFormat                           : AAC\nFormat/Info                      : Advanced Audio Codec\nFormat profile                   : HE-AAC / LC\nCodec ID                         : 40\nDuration                         : 2h 17mn\nBit rate mode                    : Variable\nBit rate                         : 96.0 Kbps\nChannel(s)                       : 2 channels\nChannel positions                : Front: L R\nSampling rate                    : 48.0 KHz / 24.0 KHz\nCompression mode                 : Lossy\nStream size                      : 93.3 MiB (3%)\n\n\n","torrent":{"xt":"urn:btih:58724756b28687b9a778efe68e50efdd19c71d76","amp;dn":"BBC+Proms+2011_21+Walton%5C%27s+Violin+Concerto","amp;tr":["udp%3A%2F%2Ftracker.openbittorrent.com%3A80","udp%3A%2F%2Fopen.demonii.com%3A1337","udp%3A%2F%2Ftracker.coppersurfer.tk%3A6969","udp%3A%2F%2Fexodus.desync.com%3A6969"],"infoHash":"58724756b28687b9a778efe68e50efdd19c71d76","infoHashBuffer":{"type":"Buffer","data":[88,114,71,86,178,134,135,185,167,120,239,230,142,80,239,221,25,199,29,118]},"announce":[],"urlList":[]}}